<?xml version="1.0" encoding="UTF-8"?>
<svg version="1.1" xmlns="http://www.w3.org/2000/svg" width="1496" height="1496">
<path d="M0 0 C0 352.77 0 705.54 0 1069 C-50.49 1069 -100.98 1069 -153 1069 C-153 923.14 -153 777.28 -153 627 C-154.98 626.34 -156.96 625.68 -159 625 C-161.01135346 624.08170648 -163.00495731 623.12391696 -164.98293018 622.13577271 C-166.75555594 621.25383397 -166.75555594 621.25383397 -168.56399232 620.35407829 C-169.86625102 619.70113253 -171.16847132 619.0481102 -172.47065735 618.39501953 C-173.86088766 617.70141502 -175.25129133 617.00815787 -176.64185303 616.31521797 C-180.45910325 614.41173832 -184.27384116 612.50327161 -188.08817923 610.59396458 C-192.20326858 608.53518735 -196.32064915 606.48100163 -200.43772888 604.4262085 C-208.50024243 600.40132828 -216.56055742 596.37206426 -224.62005363 592.34114599 C-231.16722475 589.06666947 -237.71509978 585.7936048 -244.26347923 582.52154541 C-245.19489895 582.05613315 -246.12631866 581.59072088 -247.08596322 581.11120522 C-248.9779798 580.16580279 -250.86999687 579.22040132 -252.76201441 578.27500081 C-270.50544677 569.40872314 -288.24626763 560.53723007 -305.98630544 551.66416287 C-322.23292513 543.53826581 -338.482825 535.41895305 -354.73427735 527.30272603 C-371.41008333 518.97449582 -388.08367465 510.64184763 -404.75486058 502.30437279 C-414.11915649 497.62126664 -423.48433446 492.939945 -432.85183144 488.26324463 C-440.82239506 484.28389915 -448.79086939 480.30040806 -456.75662766 476.31145144 C-460.82404543 474.2747843 -464.89242324 472.24009769 -468.96340561 470.21056366 C-472.68453768 468.35537988 -476.40289312 466.49475444 -480.11904397 464.62961364 C-481.46910172 463.95324823 -482.82019212 463.27893963 -484.17236833 462.60681939 C-485.99974956 461.69812242 -487.82314128 460.78141535 -489.64627552 459.86422729 C-490.66333161 459.35572676 -491.6803877 458.84722622 -492.72826368 458.32331657 C-495 457 -495 457 -496 455 C-474.46966543 444.14143614 -452.93021551 433.30115142 -431.37973595 422.48261929 C-421.37392874 417.45908098 -411.37120326 412.42958014 -401.37548828 407.38598633 C-392.66431525 402.99056002 -383.94759594 398.60637177 -375.22400153 394.23564678 C-370.60410791 391.92048042 -365.98720778 389.59974337 -361.37690353 387.26553154 C-357.03855026 385.06923113 -352.69294561 382.88802175 -348.34128571 380.71821213 C-346.74454969 379.91874253 -345.15055401 379.11377287 -343.55955124 378.30295372 C-341.38797982 377.19728773 -339.20744418 376.11177575 -337.02352905 375.03074646 C-336.39510868 374.70488491 -335.76668832 374.37902336 -335.11922491 374.04328722 C-330.97556018 372.02737066 -328.41458228 371.70753798 -324 373 C-321.17076206 374.16991997 -321.17076206 374.16991997 -318.19422913 375.66574097 C-317.05806656 376.2317955 -315.92190399 376.79785004 -314.75131226 377.38105774 C-313.50609133 378.01154363 -312.26094615 378.64217916 -311.01586914 379.27294922 C-309.69306087 379.93573724 -308.36989546 380.59781287 -307.04640198 381.25923157 C-303.45497117 383.05650801 -299.86853583 384.8635542 -296.28284764 386.67225409 C-292.50630848 388.57495263 -288.72502739 390.46817912 -284.94419861 392.36233521 C-277.7615107 395.96248175 -270.58276285 399.57040961 -263.40555042 403.18145764 C-250.62420802 409.61170985 -237.83557958 416.0274544 -225.04656118 422.44242299 C-220.57491121 424.68575881 -216.10474291 426.93201192 -211.63581437 429.18076384 C-197.11423518 436.486787 -182.5715913 443.72265282 -167.87498474 450.67263794 C-162.88700205 453.05394625 -157.94373144 455.52813428 -153 458 C-153 386.39 -153 314.78 -153 241 C-174.38941406 251.70050781 -195.77882813 262.40101563 -217.81640625 273.42578125 C-231.38335287 280.21180991 -244.95034921 286.9977389 -258.51757812 293.78320312 C-265.64853427 297.34965998 -272.77947785 300.91614196 -279.91040039 304.48266602 C-280.80401466 304.92960503 -281.69762894 305.37654404 -282.61832243 305.83702666 C-297.00181212 313.03093984 -311.38459314 320.22626875 -325.76710809 327.42213044 C-340.55268307 334.81961132 -355.33902974 342.21554797 -370.12607807 349.61008328 C-379.23355291 354.16450312 -388.34044014 358.72009363 -397.44655352 363.27723499 C-403.71047752 366.41186179 -409.97515765 369.54497399 -416.24040569 372.67695353 C-419.84266223 374.47776491 -423.44460948 376.27918697 -427.04565048 378.08242798 C-439.30852907 384.22268508 -451.56920636 390.35849843 -463.96366882 396.23034668 C-480.07949629 403.87485373 -495.99025234 411.93952254 -511.9354701 419.93169081 C-516.74694175 422.34273591 -521.55963364 424.75134303 -526.37219238 427.16021729 C-534.6844779 431.32118335 -542.99608756 435.48349671 -551.30728912 439.64662743 C-564.43956415 446.22451613 -577.57395875 452.79816604 -590.7086792 459.37117004 C-595.21229478 461.62497767 -599.71589654 463.87881294 -604.21949387 466.13265705 C-605.34435975 466.69559961 -606.46922564 467.25854217 -607.62817837 467.83854359 C-620.38756553 474.2240904 -633.14651519 480.61051114 -645.90527344 486.99731445 C-647.06978219 487.58024505 -648.23429094 488.16317564 -649.43408784 488.7637708 C-668.37219637 498.24395379 -687.30877693 507.72718574 -706.24498907 517.21115597 C-725.71253155 526.9610968 -745.18236059 536.70646084 -764.65416789 546.44788152 C-776.65518691 552.45200681 -788.65429272 558.45992357 -800.65098462 564.47269026 C-808.85170893 568.5825197 -817.05458409 572.6880334 -825.25919715 576.79009404 C-829.99634263 579.15869841 -834.73246557 581.52929283 -839.46601105 583.90508461 C-843.79268876 586.07661971 -848.12205786 588.24268392 -852.45369753 590.40430347 C-854.02543945 591.18988582 -855.59615284 591.97752982 -857.16576138 592.76736607 C-859.28841942 593.83513832 -861.41459126 594.89555261 -863.54185867 595.95410442 C-864.15951524 596.26701615 -864.77717181 596.57992788 -865.41354525 596.90232179 C-868.16768702 598.26360242 -869.87809006 599 -873 599 C-873 543.56 -873 488.12 -873 431 C-865.08 427.04 -865.08 427.04 -857 423 C-854.25161885 421.6237898 -851.50335923 420.24735265 -848.75561523 418.86987305 C-841.81538321 415.39164531 -834.87418032 411.91536086 -827.93237209 408.44027996 C-823.77851508 406.36075176 -819.62503628 404.28047545 -815.47241211 402.19848633 C-783.68419602 386.26209461 -783.68419602 386.26209461 -768.56968689 379.10746765 C-760.36738878 375.21013131 -752.24356128 371.16176223 -744.125 367.09375 C-743.08185733 366.57110282 -743.08185733 366.57110282 -742.01764107 366.03789711 C-737.01032253 363.52812729 -732.00496109 361.01446696 -727 358.5 C-721.29296863 355.63281651 -715.58514103 352.76723634 -709.875 349.90625 C-709.17916809 349.5575737 -708.48333618 349.2088974 -707.76641846 348.84965515 C-698.48946953 344.20461751 -689.1721977 339.66080005 -679.79589844 335.21899414 C-671.51910847 331.28248986 -663.31869028 327.1995485 -655.125 323.09375 C-654.42997375 322.74551682 -653.73494751 322.39728363 -653.01885986 322.03849792 C-648.01113533 319.52852727 -643.00536583 317.0146703 -638 314.5 C-632.29296863 311.63281651 -626.58514103 308.76723634 -620.875 305.90625 C-620.17916809 305.5575737 -619.48333618 305.2088974 -618.76641846 304.84965515 C-609.48946953 300.20461751 -600.1721977 295.66080005 -590.79589844 291.21899414 C-582.51910847 287.28248986 -574.31869028 283.1995485 -566.125 279.09375 C-565.42997375 278.74551682 -564.73494751 278.39728363 -564.01885986 278.03849792 C-559.01113533 275.52852727 -554.00536583 273.0146703 -549 270.5 C-543.29296863 267.63281651 -537.58514103 264.76723634 -531.875 261.90625 C-531.17916809 261.5575737 -530.48333618 261.2088974 -529.76641846 260.84965515 C-520.48946953 256.20461751 -511.1721977 251.66080005 -501.79589844 247.21899414 C-493.51910847 243.28248986 -485.31869028 239.1995485 -477.125 235.09375 C-476.42997375 234.74551682 -475.73494751 234.39728363 -475.01885986 234.03849792 C-470.01113533 231.52852727 -465.00536583 229.0146703 -460 226.5 C-454.29296863 223.63281651 -448.58514103 220.76723634 -442.875 217.90625 C-442.17916809 217.5575737 -441.48333618 217.2088974 -440.76641846 216.84965515 C-431.48946953 212.20461751 -422.1721977 207.66080005 -412.79589844 203.21899414 C-404.51910847 199.28248986 -396.31869028 195.1995485 -388.125 191.09375 C-387.42997375 190.74551682 -386.73494751 190.39728363 -386.01885986 190.03849792 C-381.01113533 187.52852727 -376.00536583 185.0146703 -371 182.5 C-365.29296863 179.63281651 -359.58514103 176.76723634 -353.875 173.90625 C-353.17916809 173.5575737 -352.48333618 173.2088974 -351.76641846 172.84965515 C-342.48946953 168.20461751 -333.1721977 163.66080005 -323.79589844 159.21899414 C-315.51910847 155.28248986 -307.31869028 151.1995485 -299.125 147.09375 C-298.42997375 146.74551682 -297.73494751 146.39728363 -297.01885986 146.03849792 C-292.01113533 143.52852727 -287.00536583 141.0146703 -282 138.5 C-276.29296863 135.63281651 -270.58514103 132.76723634 -264.875 129.90625 C-264.17916809 129.5575737 -263.48333618 129.2088974 -262.76641846 128.84965515 C-253.48946953 124.20461751 -244.1721977 119.66080005 -234.79589844 115.21899414 C-226.51910847 111.28248986 -218.31869028 107.1995485 -210.125 103.09375 C-209.42997375 102.74551682 -208.73494751 102.39728363 -208.01885986 102.03849792 C-203.01113533 99.52852727 -198.00536583 97.0146703 -193 94.5 C-187.29296863 91.63281651 -181.58514103 88.76723634 -175.875 85.90625 C-174.83125214 85.38323555 -174.83125214 85.38323555 -173.76641846 84.84965515 C-164.48946953 80.20461751 -155.1721977 75.66080005 -145.79589844 71.21899414 C-137.51910847 67.28248986 -129.31869028 63.1995485 -121.125 59.09375 C-120.42997375 58.74551682 -119.73494751 58.39728363 -119.01885986 58.03849792 C-114.01113533 55.52852727 -109.00536583 53.0146703 -104 50.5 C-98.29296861 47.6328165 -92.58512902 44.76726033 -86.875 41.90625 C-85.8355829 41.38538535 -85.8355829 41.38538535 -84.77516747 40.85399818 C-75.30068335 36.10985064 -65.78487196 31.4670325 -56.20991516 26.92826843 C-44.21924988 21.23084365 -32.3887365 15.20936192 -20.54077148 9.22241211 C-17.51196069 7.69303594 -14.48076093 6.16848422 -11.44921875 4.64453125 C-10.52549973 4.17594193 -9.6017807 3.7073526 -8.65007019 3.2245636 C-7.80350357 2.79959091 -6.95693695 2.37461823 -6.0847168 1.93676758 C-4.96966011 1.37364616 -4.96966011 1.37364616 -3.83207703 0.79914856 C-2 0 -2 0 0 0 Z " fill="#C49A3A" transform="translate(1282,55)"/>
<path d="M0 0 C4.05663726 0.81132745 6.38547113 1.51686108 9.9296875 3.3359375 C10.87666504 3.81683838 11.82364258 4.29773926 12.79931641 4.79321289 C13.81429199 5.31520264 14.82926758 5.83719238 15.875 6.375 C18.06684483 7.48738018 20.2595733 8.59802071 22.453125 9.70703125 C23.55849609 10.26600098 24.66386719 10.8249707 25.80273438 11.40087891 C30.37850247 13.68946176 34.99837397 15.87910053 39.625 18.0625 C50.16212493 23.05238695 60.5811271 28.26932634 71 33.5 C81.0860188 38.5634728 91.16743743 43.62202392 101.375 48.4375 C112.0032879 53.45236948 122.49745659 58.72857861 133 64 C148.68684608 71.87888542 148.68684608 71.87888542 164.5 79.5 C175.98843976 84.91774348 187.32095909 90.64382835 198.67230225 96.34127808 C209.12908852 101.58793844 219.60218534 106.77769125 230.18359375 111.76953125 C240.38030889 116.60662598 250.44575124 121.70757551 260.53137207 126.77081299 C269.77445569 131.40939274 279.02125742 136.02481839 288.375 140.4375 C299.0032879 145.45236948 309.49745659 150.72857861 320 156 C335.68684608 163.87888542 335.68684608 163.87888542 351.5 171.5 C362.98911881 176.91806371 374.32229587 182.64451184 385.67431641 188.34228516 C396.07924803 193.56291133 406.4995421 198.72831144 417.02978516 203.69262695 C428.60038892 209.18119234 440.01847021 214.98502055 451.45507812 220.74609375 C461.89537311 225.99723199 472.39855499 231.0821122 483 236 C483 236.99 483 237.98 483 239 C461.47210722 249.88067887 439.93283422 260.73852173 418.37973595 271.56919289 C408.37281836 276.59844792 398.36977892 281.63514554 388.37548828 286.68945312 C379.66580898 291.09408397 370.94922094 295.4846702 362.22400153 299.85844171 C357.60303714 302.17544986 352.98586945 304.49940146 348.37690353 306.84019852 C344.04023877 309.04242243 339.69459486 311.22576925 335.34128571 313.39489555 C333.74383976 314.19499613 332.14981991 315.00197905 330.55955124 315.81625175 C328.38965655 316.92603026 326.20885522 318.01051413 324.02352905 319.08950806 C323.39510868 319.41828245 322.76668832 319.74705684 322.11922491 320.08579409 C317.22306888 322.45128442 316.72542191 321.90847397 311 320 C258.86 293.93 206.72 267.86 153 241 C153 514.24 153 787.48 153 1069 C102.51 1069 52.02 1069 0 1069 C0 716.23 0 363.46 0 0 Z " fill="#C89E3B" transform="translate(214,55)"/>
<path d="M0 0 C4.99533565 1.96852415 9.71705647 4.3990212 14.49609375 6.83984375 C23.4147676 11.38308457 32.41132521 15.73761292 41.44633484 20.04377747 C51.12196032 24.65994136 60.75255355 29.36552028 70.37640381 34.08847046 C75.49576478 36.60062415 80.61703703 39.10887575 85.73828125 41.6171875 C86.75556305 42.11549576 87.77284485 42.61380402 88.82095337 43.12721252 C97.6828793 47.46659093 106.55543774 51.7837874 115.43359375 56.08984375 C127.89952963 62.13681801 140.35705657 68.20077214 152.80859375 74.27734375 C156.27994407 75.97136205 159.75129592 77.66537721 163.22265625 79.359375 C164.51187988 79.98851807 164.51187988 79.98851807 165.82714844 80.63037109 C174.94407405 85.07907407 184.06359976 89.5224352 193.18359375 93.96484375 C193.98406128 94.35476501 194.78452881 94.74468628 195.60925293 95.14642334 C199.64474484 97.11216396 203.6802726 99.07783098 207.71582031 101.04345703 C215.01712245 104.59980744 222.31808672 108.15685139 229.61907959 111.71383667 C233.68223743 113.69336683 237.74541666 115.67285309 241.80859375 117.65234375 C243.43359385 118.44401021 245.05859385 119.23567687 246.68359375 120.02734375 C247.48796875 120.41921875 248.29234375 120.81109375 249.12109375 121.21484375 C251.55859375 122.40234375 253.99609375 123.58984375 256.43359375 124.77734375 C257.23792847 125.16919861 258.04226318 125.56105347 258.87097168 125.96478271 C260.49638022 126.75664946 262.12178712 127.54851958 263.74719238 128.34039307 C267.8034282 130.31652618 271.85969234 132.29260113 275.91601562 134.26855469 C283.30311911 137.86710022 290.69001128 141.46607628 298.07583618 145.06724548 C300.58351115 146.28988124 303.09130689 147.512269 305.59912109 148.73461914 C308.87071576 150.32926787 312.14181083 151.92493528 315.41259766 153.52124023 C323.21664879 157.3278535 331.02949155 161.11430595 338.86328125 164.859375 C340.32687061 165.56077289 341.79041344 166.26226787 343.25390625 166.96386719 C345.97732088 168.26943945 348.70431251 169.56709684 351.43359375 170.86035156 C352.63947361 171.43783647 353.84521176 172.01561744 355.05078125 172.59375 C356.61868408 173.33927124 356.61868408 173.33927124 358.21826172 174.09985352 C360.55859375 175.40234375 360.55859375 175.40234375 361.55859375 177.40234375 C353.65026386 177.53908752 345.74184925 177.66940364 337.83331203 177.79349518 C334.15257817 177.8514091 330.47188816 177.9108039 326.79125977 177.97509766 C305.15905132 178.35146239 283.53031771 178.43231926 261.89533353 178.41736412 C258.235462 178.41508413 254.57559012 178.41411847 250.91571808 178.4130249 C243.7966758 178.41071271 236.67763492 178.40700375 229.55859375 178.40234375 C229.27397687 224.40795712 229.08433694 270.41311376 229.02160009 316.41959325 C229.01410789 321.85427423 229.00583151 327.28895374 228.99707031 332.72363281 C228.99533934 333.80555363 228.99360837 334.88747444 228.99182494 336.00218074 C228.96194872 353.50773546 228.8685858 371.0124028 228.75164883 388.51756771 C228.63302644 406.48721002 228.58288772 424.45610839 228.59596789 442.4261421 C228.60188793 453.51029628 228.55476247 464.59159407 228.43919279 475.67515825 C228.36500328 483.28159315 228.357499 490.88629855 228.40173875 498.49295868 C228.42530109 502.87930129 228.42013443 507.26048985 228.33551979 511.64619255 C227.20853951 530.3124974 227.20853951 530.3124974 234.50214005 546.50547409 C238.18119028 549.69679198 242.08549891 552.11956069 246.42978215 554.29948688 C249.37561441 555.82561129 251.83021851 557.71673959 254.4375 559.76171875 C256.81890441 561.49224458 259.20651619 563.21383172 261.59570312 564.93359375 C262.36849609 565.495625 263.14128906 566.05765625 263.9375 566.63671875 C264.95179077 567.36713379 264.95179077 567.36713379 265.98657227 568.11230469 C267.55859375 569.40234375 267.55859375 569.40234375 268.55859375 571.40234375 C217.07859375 571.40234375 165.59859375 571.40234375 112.55859375 571.40234375 C112.52121094 554.64710938 112.48382812 537.891875 112.4453125 520.62890625 C112.4150294 510.00129388 112.38400019 499.37369231 112.34960938 488.74609375 C112.33156215 483.16015695 112.31369863 477.57421961 112.29614258 471.98828125 C112.29283105 470.93827788 112.29283105 470.93827788 112.28945261 469.86706233 C112.2541865 458.60032745 112.2292697 447.33359263 112.20824673 436.0668232 C112.18640111 424.48406444 112.15305008 412.90138017 112.10989219 401.31868112 C112.08604064 394.82128452 112.06725909 388.32396596 112.06097984 381.82652664 C112.05489239 375.69846697 112.03476139 369.57060677 112.00431824 363.44262123 C111.99559635 361.20551633 111.99180314 358.9683853 111.99358559 356.73126411 C112.00995928 326.67166702 106.30961434 298.97510653 86.55859375 275.40234375 C85.71425781 274.39429688 84.86992188 273.38625 84 272.34765625 C64.08806981 249.31192784 35.61266539 236.9948675 5.55859375 234.40234375 C-24.66066544 232.41561045 -54.44422892 243.57775353 -77.10546875 263.34179688 C-97.86809552 282.05477972 -111.86892646 308.40465603 -114.44140625 336.40234375 C-114.58212971 339.69731522 -114.59600485 342.98821469 -114.59962463 346.28588867 C-114.60456261 347.25235888 -114.60950059 348.21882908 -114.6145882 349.21458626 C-114.62988688 352.43732669 -114.63830305 355.66004733 -114.64672852 358.8828125 C-114.65631304 361.19923576 -114.66632346 363.5156573 -114.67672729 365.83207703 C-114.70372014 372.1103176 -114.7247601 378.38856565 -114.74472928 384.66683197 C-114.76662354 391.23184057 -114.79399539 397.79682629 -114.82078552 404.36181641 C-114.86516102 415.37743062 -114.90584317 426.39305431 -114.9440918 437.40869141 C-114.98348787 448.75212522 -115.02493495 460.09554852 -115.0690918 471.43896484 C-115.0718413 472.14593408 -115.07459081 472.85290331 -115.07742363 473.58129585 C-115.10136015 479.73143167 -115.1254515 485.88156688 -115.14955807 492.03170204 C-115.25305995 518.4885623 -115.34639753 544.94544847 -115.44140625 571.40234375 C-166.92140625 571.40234375 -218.40140625 571.40234375 -271.44140625 571.40234375 C-265.81118117 565.77211867 -265.81118117 565.77211867 -263.26953125 563.74609375 C-262.69541504 563.2869458 -262.12129883 562.82779785 -261.52978516 562.35473633 C-260.92312012 561.87544678 -260.31645508 561.39615723 -259.69140625 560.90234375 C-259.05251465 560.39405029 -258.41362305 559.88575684 -257.75537109 559.36206055 C-251.83154122 554.66885026 -245.83211298 550.07462623 -239.81347656 545.50390625 C-238.7823877 544.72080078 -238.7823877 544.72080078 -237.73046875 543.921875 C-237.11896973 543.45885986 -236.5074707 542.99584473 -235.87744141 542.51879883 C-234.46969342 541.47204202 -234.46969342 541.47204202 -233.44140625 540.40234375 C-233.33867813 538.47901855 -233.30739819 536.55186882 -233.30274105 534.62580776 C-233.29726661 533.36282752 -233.29179216 532.09984727 -233.28615183 530.79859489 C-233.28507542 529.37878643 -233.28409076 527.9589779 -233.28318787 526.53916931 C-233.27862631 525.04512716 -233.2736269 523.55108629 -233.2682243 522.05704695 C-233.25458744 517.93193939 -233.24720887 513.80684011 -233.24079764 509.68171585 C-233.23281794 505.24064588 -233.21911187 500.79959328 -233.20608521 496.35853577 C-233.18428783 488.65759256 -233.16615532 480.95664763 -233.15048027 473.25568962 C-233.12781125 462.12126327 -233.09966437 450.98685612 -233.07016099 439.85244603 C-233.02244859 421.7895786 -232.97919433 403.72670335 -232.9387207 385.66381836 C-232.89938431 368.11270538 -232.85796256 350.56159938 -232.8137207 333.01049805 C-232.80963429 331.38895353 -232.80963429 331.38895353 -232.80546533 329.73465054 C-232.79178616 324.3116873 -232.77806583 318.88872416 -232.76432502 313.46576107 C-232.65030296 268.44463649 -232.54350632 223.42349684 -232.44140625 178.40234375 C-233.55381183 178.40307239 -233.55381183 178.40307239 -234.68869025 178.40381575 C-241.78306201 178.40825488 -248.87743327 178.41155723 -255.97180605 178.41367766 C-259.61640674 178.41480454 -263.26100626 178.41632507 -266.90560627 178.41884613 C-288.67934773 178.43350042 -310.44581713 178.31254819 -332.21661377 177.93878174 C-336.02260426 177.87464488 -339.82868958 177.81661042 -343.63476562 177.7578125 C-350.90374053 177.64474223 -358.172601 177.52589313 -365.44140625 177.40234375 C-362.69126781 175.23154826 -359.9757669 173.55611142 -356.8293457 172.02075195 C-355.45606361 171.34684921 -355.45606361 171.34684921 -354.05503845 170.65933228 C-353.06492264 170.17878387 -352.07480682 169.69823547 -351.0546875 169.203125 C-350.01812515 168.69598969 -348.98156281 168.18885437 -347.91358948 167.66635132 C-344.52900384 166.0117686 -341.1415105 164.36323611 -337.75390625 162.71484375 C-335.40820851 161.56973965 -333.06266895 160.42431144 -330.71728516 159.27856445 C-316.97606506 152.5695843 -303.22391402 145.88285015 -289.45874023 139.22314453 C-278.7337889 134.03420945 -268.02340081 128.81572251 -257.31640625 123.58984375 C-256.02150269 122.95786072 -256.02150269 122.95786072 -254.70043945 122.31311035 C-251.20835774 120.60877767 -247.71628127 118.90443423 -244.22424316 117.20001221 C-235.09042294 112.74225937 -225.95365679 108.2905601 -216.81640625 103.83984375 C-216.01612 103.45001312 -215.21583374 103.0601825 -214.39129639 102.65853882 C-210.35562096 100.69270749 -206.3199117 98.72694563 -202.28417969 96.76123047 C-194.98287755 93.20488006 -187.68191328 89.64783611 -180.38092041 86.09085083 C-176.31776257 84.11132067 -172.25458334 82.13183441 -168.19140625 80.15234375 C-166.56640615 79.36067729 -164.94140615 78.56901063 -163.31640625 77.77734375 C-153.5664062 73.02734373 -153.5664062 73.02734373 -151.12896729 71.83987427 C-149.50376301 71.04810756 -147.87855956 70.25633917 -146.25335693 69.46456909 C-142.19398903 67.4869192 -138.13460691 65.50929849 -134.07519531 63.53173828 C-126.72528874 59.95116345 -119.37548948 56.37036917 -112.0262146 52.78849792 C-95.01028012 44.49534073 -77.9910503 36.20912742 -60.96182251 27.94329834 C-48.26040766 21.77754867 -35.56823208 15.5929313 -22.87890625 9.40234375 C-21.96530334 8.95666046 -21.05170044 8.51097717 -20.1104126 8.05178833 C-17.53186167 6.79380412 -14.95340313 5.53563084 -12.375 4.27734375 C-11.59969437 3.89903915 -10.82438873 3.52073456 -10.02558899 3.13096619 C-2.40518488 -0.58878926 -2.40518488 -0.58878926 0 0 Z " fill="#E0B645" transform="translate(749.44140625,550.59765625)"/>
<path d="M0 0 C1.79413888 1.55687534 3.56427694 3.14173657 5.3125 4.75 C5.80347168 5.19859375 6.29444336 5.6471875 6.80029297 6.109375 C24.2535588 22.22859799 39.36237805 46.40066896 40.40236294 70.86380935 C40.43841824 73.42471556 40.44093047 75.98374047 40.43275452 78.54489136 C40.43403615 80.0165347 40.43403615 80.0165347 40.43534368 81.51790822 C40.43698952 84.80215927 40.43149176 88.08635913 40.42602539 91.37060547 C40.4257433 93.72614033 40.42590168 96.08167528 40.4264679 98.43721008 C40.42675501 104.83128665 40.42087204 111.2253445 40.41389394 117.61941671 C40.4082792 123.62484889 40.40727082 129.63028108 40.40624207 135.63571538 C40.40405483 147.52863149 40.39740363 159.42154074 40.38793945 171.31445312 C40.37875686 182.86555955 40.37169164 194.4166641 40.36743164 205.96777344 C40.36716364 206.68734868 40.36689565 207.40692391 40.36661953 208.14830446 C40.3643066 214.40782448 40.36215384 220.66734455 40.36001682 226.92686462 C40.35061149 253.86791622 40.33068976 280.80894959 40.3125 307.75 C-6.5475 307.75 -53.4075 307.75 -101.6875 307.75 C-101.6875 261.22 -101.6875 214.69 -101.6875 166.75 C-107.9575 166.75 -114.2275 166.75 -120.6875 166.75 C-120.79520003 163.14504056 -120.87467372 159.54327967 -120.9375 155.9375 C-120.97101562 154.91333984 -121.00453125 153.88917969 -121.0390625 152.83398438 C-121.05195312 151.85107422 -121.06484375 150.86816406 -121.078125 149.85546875 C-121.09907227 148.94949951 -121.12001953 148.04353027 -121.14160156 147.11010742 C-120.6875 144.75 -120.6875 144.75 -118.98860168 143.1237793 C-116.22457195 141.47362761 -114.61806629 141.3863262 -111.41577148 141.40942383 C-109.8390995 141.40976372 -109.8390995 141.40976372 -108.23057556 141.41011047 C-106.53669456 141.43333626 -106.53669456 141.43333626 -104.80859375 141.45703125 C-103.06317039 141.46339851 -103.06317039 141.46339851 -101.28248596 141.46989441 C-97.56308877 141.48668701 -93.8442332 141.52432077 -90.125 141.5625 C-87.61524225 141.57754787 -85.10547595 141.59123609 -82.59570312 141.60351562 C-77.07479017 141.63303254 -71.55415622 141.67567931 -66.03343201 141.72981262 C-64.25150794 141.74514656 -62.46949004 141.75 -60.6875 141.75 C-63.21706528 138.6583091 -65.91204612 137.84068668 -69.6875 136.75 C-67.07677547 133.89063504 -65.13049808 132.88818349 -61.19921875 132.51171875 C-56.69481559 132.39334578 -53.4248451 132.42824941 -49.25 134.25 C-45.0125301 138.38411697 -42.49913213 142.80527833 -42.3125 148.8125 C-42.69021931 152.77855272 -43.43421613 155.99014839 -44.6875 159.75 C-41.53489747 154.45813147 -39.50549599 149.96155167 -40.6875 143.75 C-42.63723138 137.84603813 -45.64471349 134.29067989 -50.6875 130.75 C-53.62004985 129.77248338 -55.74462763 129.52053358 -58.8125 129.4375 C-59.70195313 129.40011719 -60.59140625 129.36273437 -61.5078125 129.32421875 C-64.5762063 129.73509704 -65.8428936 130.32381509 -68.47607422 131.76098633 C-74.88303243 134.68045796 -81.33938672 134.18381171 -88.25 134 C-89.54486328 133.98195313 -90.83972656 133.96390625 -92.17382812 133.9453125 C-95.34583414 133.89849322 -98.51626704 133.83292473 -101.6875 133.75 C-101.76438991 125.94366869 -101.81644744 118.13743717 -101.85229492 110.33081055 C-101.86554606 107.68218862 -101.88763724 105.03407231 -101.91381836 102.38549805 C-102.15662889 77.16652976 -101.69224307 51.65223536 -83.4375 32 C-71.833686 21.24713236 -57.48018732 16.52114222 -41.8125 16.625 C-41.10867188 16.62693359 -40.40484375 16.62886719 -39.6796875 16.63085938 C-34.92977807 16.67044195 -30.36840661 16.9698489 -25.6875 17.75 C-40.96469019 8.78934037 -57.11916483 6.72826781 -74.23828125 10.77734375 C-93.93968819 16.33300664 -109.18623297 28.28812302 -119.6875 45.75 C-128.53511606 61.899797 -129.13400634 76.92030627 -129.11987305 94.88989258 C-129.12890146 97.21690894 -129.13923132 99.54392057 -129.15075684 101.8709259 C-129.17822596 108.15509236 -129.18759765 114.43916832 -129.19361091 120.723387 C-129.20302087 127.3030695 -129.22922636 133.8826851 -129.25361633 140.46232605 C-129.29275702 151.49513467 -129.32064953 162.52793272 -129.34106445 173.56079102 C-129.36210899 184.91856479 -129.38941422 196.27629543 -129.42504883 207.6340332 C-129.42724765 208.33554875 -129.42944648 209.03706431 -129.43171193 209.7598379 C-129.44278245 213.2795608 -129.4539751 216.79928329 -129.46522844 220.31900561 C-129.55824947 249.46263085 -129.62910581 278.6062854 -129.6875 307.75 C-138.9275 307.75 -148.1675 307.75 -157.6875 307.75 C-157.75541705 277.54113371 -157.80908162 247.33227729 -157.84069599 217.12335201 C-157.8444478 213.55131007 -157.84833079 209.97926828 -157.85229492 206.40722656 C-157.85308185 205.69614198 -157.85386878 204.98505739 -157.85467956 204.25242479 C-157.86770889 192.76114135 -157.89134899 181.26990324 -157.91895839 169.77864663 C-157.94708162 157.97447232 -157.96369083 146.17032165 -157.96976548 134.36611521 C-157.97350092 127.74138711 -157.98280978 121.1167431 -158.00469017 114.49204636 C-158.02514135 108.24914375 -158.03131636 102.00638546 -158.02682304 95.76345253 C-158.02764439 93.47949373 -158.03355826 91.19552981 -158.04511642 88.91160011 C-158.10175895 77.13538882 -157.99848044 66.1457438 -154.6875 54.75 C-154.46491611 53.98320608 -154.24233221 53.21641216 -154.01300335 52.42638206 C-145.08390286 24.23433409 -124.99959536 2.50958885 -99.14892578 -11.11035156 C-92.85862138 -14.30758731 -86.5710523 -16.64028041 -79.6875 -18.25 C-78.75164062 -18.47300781 -77.81578125 -18.69601562 -76.8515625 -18.92578125 C-50.07296501 -24.31818376 -21.33735355 -16.94707793 0 0 Z " fill="#C59A39" transform="translate(806.6875,814.25)"/>
<path d="M0 0 C19.47 0 38.94 0 59 0 C64.74281631 18.37701219 64.74281631 18.37701219 66.69140625 25.53295898 C66.91819061 26.35654907 67.14497498 27.18013916 67.37863159 28.02868652 C68.10912671 30.68379887 68.83579909 33.33994072 69.5625 35.99609375 C70.08117548 37.88314039 70.60014323 39.77010672 71.11938477 41.65699768 C72.47438811 46.5832315 73.82635536 51.51029254 75.17736816 56.43762207 C77.33779684 64.31602165 79.50179853 72.19343755 81.66793823 80.07026863 C82.41423094 82.78640586 83.15852132 85.50308561 83.90258789 88.21983337 C86.81951665 98.84866077 89.8494248 109.43804775 93 120 C95.87540498 109.56261154 98.75037986 99.12510465 101.625 88.6875 C101.83868351 87.91162663 102.05236702 87.13575325 102.27252579 86.33636856 C110.19717238 57.5618132 118.10393842 28.78241802 126 0 C145.47 0 164.94 0 185 0 C185 60.72 185 121.44 185 184 C173.12 184 161.24 184 149 184 C148.1893034 167.4081275 147.80206367 150.86350665 147.68359375 134.25390625 C147.66295393 131.77570811 147.64195603 129.29751293 147.62062073 126.81932068 C147.56612397 120.38016193 147.51640382 113.94097538 147.46777344 107.50177002 C147.41702045 100.89764002 147.36161884 94.29354906 147.30664062 87.68945312 C147.19994835 74.7930025 147.09815762 61.89651827 147 49 C146.51926025 50.87324448 146.51926025 50.87324448 146.02880859 52.78433228 C142.97180566 64.69544257 139.9132985 76.60616577 136.85340881 88.51653481 C135.28126586 94.63616243 133.7096089 100.75591392 132.13916016 106.87597656 C125.53430664 132.6138312 118.91112678 158.34244183 112 184 C99.46 184 86.92 184 74 184 C70.6250141 173.8750423 70.6250141 173.8750423 69.69927979 170.26504517 C69.48650391 169.44186295 69.27372803 168.61868073 69.05450439 167.77055359 C68.83316833 166.90090469 68.61183228 166.0312558 68.38378906 165.13525391 C68.1410022 164.19219894 67.89821533 163.24914398 67.64807129 162.2775116 C66.85089242 159.17796463 66.05825045 156.0772767 65.265625 152.9765625 C64.7040453 150.78958829 64.14217057 148.60268983 63.58001709 146.41586304 C62.1003286 140.65664536 60.62443834 134.89646113 59.14941406 129.13604736 C57.6720366 123.36880126 56.1914518 117.60237899 54.7109375 111.8359375 C53.03286937 105.2999916 51.35499539 98.76399821 49.68023682 92.22720337 C45.81420602 77.14415971 41.90768244 62.07248939 38 47 C37.67 92.21 37.34 137.42 37 184 C24.79 184 12.58 184 0 184 C0 123.28 0 62.56 0 0 Z " fill="#D7AF41" transform="translate(86,1256)"/>
<path d="M0 0 C0.97646484 0.83917969 0.97646484 0.83917969 1.97265625 1.6953125 C2.63394531 2.21351562 3.29523438 2.73171875 3.9765625 3.265625 C17.42542109 14.16156914 26.9423315 31.51006376 28.97265625 48.6953125 C30.55990338 70.08787661 26.32496205 89.72706604 12.05078125 106.3984375 C11.365 107.15640625 10.67921875 107.914375 9.97265625 108.6953125 C9.3075 109.45328125 8.64234375 110.21125 7.95703125 110.9921875 C-7.43519452 127.52457814 -30.76321728 137.2110247 -53.15625 138.03125 C-70.99888434 138.28001882 -86.84654315 136.63524756 -103.02734375 128.6953125 C-104.42533203 128.01662109 -104.42533203 128.01662109 -105.8515625 127.32421875 C-112.57700061 123.86301002 -118.35514468 119.68500307 -124.02734375 114.6953125 C-124.78917969 114.02886719 -125.55101562 113.36242188 -126.3359375 112.67578125 C-136.33412267 103.33605542 -142.97892185 91.70809718 -147.02734375 78.6953125 C-147.27226563 77.92574219 -147.5171875 77.15617187 -147.76953125 76.36328125 C-152.73787842 56.93227964 -148.06809805 36.59613741 -138.21191406 19.59570312 C-125.91573924 -0.13088896 -105.12139942 -12.16570725 -82.99755859 -17.84814453 C-54.68165082 -24.40957545 -22.61702707 -18.85456836 0 0 Z M-72.02734375 33.1953125 C-75.27660011 37.25688294 -75.52823402 40.60292805 -75.02734375 45.6953125 C-73.9043833 47.86826124 -72.64049914 49.81195268 -71.21875 51.80078125 C-68.82911005 55.60070051 -68.93996281 59.19621592 -69.0703125 63.59765625 C-69.09158203 64.73525391 -69.11285156 65.87285156 -69.13476562 67.04492188 C-69.18807039 69.43323522 -69.25314068 71.82131549 -69.33007812 74.20898438 C-69.34748047 75.34787109 -69.36488281 76.48675781 -69.3828125 77.66015625 C-69.41012451 78.697771 -69.43743652 79.73538574 -69.46557617 80.80444336 C-68.91379779 84.44433629 -67.55212841 86.07144771 -65.02734375 88.6953125 C-61.92685447 90.24555714 -59.44840157 89.98523265 -56.02734375 89.6953125 C-53.27405354 87.89968845 -51.50106914 86.64276328 -50.02734375 83.6953125 C-49.98969394 81.75552081 -50.01466438 79.81435881 -50.0703125 77.875 C-50.09158203 76.699375 -50.11285156 75.52375 -50.13476562 74.3125 C-50.18765575 71.84085427 -50.25253094 69.36943252 -50.33007812 66.8984375 C-50.46280457 57.87303939 -49.02253212 53.18809506 -44.02734375 45.6953125 C-43.55995835 40.94356093 -43.53618245 38.65944394 -45.71484375 34.3828125 C-48.96332339 30.60755238 -51.48244681 29.11124629 -56.27734375 27.8203125 C-62.53249857 27.61180734 -67.21846936 29.18791717 -72.02734375 33.1953125 Z " fill="#DBB343" transform="translate(1019.02734375,1301.3046875)"/>
<path d="M0 0 C1.10275269 -0.00855011 1.10275269 -0.00855011 2.2277832 -0.01727295 C3.78091006 -0.02668111 5.3340565 -0.0332402 6.88720703 -0.03710938 C9.2155444 -0.04673259 11.54296608 -0.07776028 13.87109375 -0.109375 C34.05634466 -0.25296762 52.86708156 4.47306968 68 18.515625 C78.6510198 29.74305293 82.25 43.07935284 82.25 58.203125 C69.38 58.533125 56.51 58.863125 43.25 59.203125 C41.6 54.583125 39.95 49.963125 38.25 45.203125 C34.30944602 40.24620365 34.30944602 40.24620365 29.25 37.453125 C28.404375 37.04578125 27.55875 36.6384375 26.6875 36.21875 C16.27668978 31.88091241 0.74044828 32.56097048 -9.875 35.953125 C-14.45991157 37.84573385 -18.04986057 39.93627243 -21.0625 43.953125 C-22.12507219 47.430634 -22.40225589 50.64661396 -21.75 54.203125 C-16.90381764 62.07817133 -8.5167154 64.54689688 0 67.015625 C0.8448999 67.26642822 1.6897998 67.51723145 2.56030273 67.77563477 C8.89634469 69.61819856 15.28021704 71.21287538 21.69287109 72.76464844 C67.41028247 83.82859502 67.41028247 83.82859502 81.0625 103.203125 C88.6839778 116.0355667 90.22184726 131.87704618 87.1875 146.328125 C83.30064697 159.67239 75.59850186 171.37160399 63.51171875 178.5234375 C50.82606107 185.46049172 36.79496175 189.31951576 22.31640625 189.40625 C21.18391701 189.41480011 21.18391701 189.41480011 20.02854919 189.42352295 C18.43253968 189.43293402 16.83651108 189.43949138 15.24047852 189.44335938 C12.85070716 189.45297133 10.46183222 189.48399148 8.07226562 189.515625 C-12.75666802 189.65988204 -33.34036032 185.1509442 -49 170.453125 C-60.1610296 158.58454547 -67.75 141.60866576 -67.75 125.203125 C-40.7923526 122.81535694 -40.7923526 122.81535694 -28.75 123.203125 C-28.42128906 124.32847656 -28.42128906 124.32847656 -28.0859375 125.4765625 C-24.78802697 136.12103795 -20.90339728 145.63961964 -10.75 151.203125 C-3.2802153 155.08353264 4.11132214 155.57564376 12.375 155.640625 C13.29297363 155.65077637 14.21094727 155.66092773 15.15673828 155.67138672 C24.80011626 155.54875017 33.57827207 153.22330039 41.25 147.203125 C46.39638957 141.65044151 47.75773441 137.37126187 47.5390625 129.88671875 C47.09748643 125.787222 46.22294632 124.10850436 43.25 121.203125 C33.13574025 114.6997054 21.59456285 112.44880712 10.0625 109.703125 C-40.16272 97.63096832 -40.16272 97.63096832 -53.625 77.953125 C-60.46158537 66.31638394 -62.63188695 54.04684137 -60.08984375 40.75 C-56.42246558 27.35057501 -48.76361941 16.80382056 -36.93359375 9.453125 C-25.50639329 3.36673328 -12.92756559 0.07954381 0 0 Z " fill="#D7AF41" transform="translate(558.75,1252.796875)"/>
<path d="M0 0 C12.87 0 25.74 0 39 0 C39 23.76 39 47.52 39 72 C63.75 72 88.5 72 114 72 C114 48.24 114 24.48 114 0 C126.87 0 139.74 0 153 0 C153 60.72 153 121.44 153 184 C140.13 184 127.26 184 114 184 C114 157.6 114 131.2 114 104 C89.25 104 64.5 104 39 104 C39 130.4 39 156.8 39 184 C26.13 184 13.26 184 0 184 C0 123.28 0 62.56 0 0 Z " fill="#D7AF41" transform="translate(678,1256)"/>
<path d="M0 0 C14.19 0 28.38 0 43 0 C45.43375 5.878125 47.8675 11.75625 50.375 17.8125 C59.15608593 39.00166068 68.00718583 60.16113216 76.87432861 81.31439209 C82.06690671 93.70275781 87.25533875 106.09285664 92.43783569 118.48544312 C94.51929709 123.46229438 96.60250465 128.43840694 98.68798828 133.41357422 C100.9932084 138.91315848 103.29512684 144.41411502 105.59503174 149.91592407 C106.48105321 152.03389605 107.36819643 154.15139916 108.25653076 156.2684021 C109.4956729 159.22194512 110.73070676 162.17717525 111.96484375 165.1328125 C112.32965347 165.999702 112.6944632 166.86659149 113.07032776 167.75975037 C113.41313278 168.58298294 113.75593781 169.40621552 114.10913086 170.25439453 C114.40347519 170.95742706 114.69781952 171.66045959 115.00108337 172.38479614 C116.46218486 176.21001853 117.70511993 180.1153598 119 184 C104.81 184 90.62 184 76 184 C69.8778293 170.53122445 64.49468569 156.73671424 59 143 C34.25 143 9.5 143 -16 143 C-20.89446478 156.11790608 -20.89446478 156.11790608 -25.78295898 169.23803711 C-26.39545325 170.87622059 -27.00815074 172.51432812 -27.62109375 174.15234375 C-27.93985474 175.01089966 -28.25861572 175.86945557 -28.58703613 176.75402832 C-28.8914563 177.56601685 -29.19587646 178.37800537 -29.50952148 179.21459961 C-29.77377426 179.9229747 -30.03802704 180.63134979 -30.31028748 181.3611908 C-31 183 -31 183 -32 184 C-35.10251201 184.08874135 -38.1826812 184.11518455 -41.28515625 184.09765625 C-42.21597519 184.0962413 -43.14679413 184.09482635 -44.1058197 184.09336853 C-47.09141191 184.08775172 -50.07693029 184.0751964 -53.0625 184.0625 C-55.08137913 184.05748716 -57.10025943 184.05292388 -59.11914062 184.04882812 C-64.07945572 184.03777683 -69.03971532 184.02050095 -74 184 C-72.23702115 178.56348541 -70.35826342 173.22090546 -68.19921875 167.92578125 C-67.79640434 166.93447456 -67.79640434 166.93447456 -67.38545227 165.92314148 C-66.48881201 163.71849372 -65.58814486 161.5155145 -64.6875 159.3125 C-64.03555219 157.71169241 -63.38386805 156.11077742 -62.73242188 154.50976562 C-61.2899259 150.96627356 -59.84558401 147.42354119 -58.39990234 143.88134766 C-55.81203145 137.54050672 -53.22814097 131.1980469 -50.64453125 124.85546875 C-49.71111031 122.56412351 -48.77767923 120.2727824 -47.84423828 117.98144531 C-47.37648987 116.83325317 -46.90874146 115.68506104 -46.42681885 114.5020752 C-44.99296311 110.98272822 -43.55878129 107.46351428 -42.12451172 103.94433594 C-28.01528067 69.32361217 -14.00665549 34.66232613 0 0 Z M20 46 C17.70594721 52.06035048 15.41322513 58.12120328 13.12133789 64.18237305 C12.34493642 66.2352176 11.56825348 68.28795571 10.79125977 70.34057617 C9.66084056 73.32701657 8.53150707 76.31386581 7.40234375 79.30078125 C7.0666185 80.1870369 6.73089325 81.07329254 6.38499451 81.98640442 C2.8650049 91.30365579 -0.55631982 100.6528681 -4 110 C12.5 110 29 110 46 110 C43.67308073 102.11814088 43.67308073 102.11814088 40.94702148 94.44604492 C40.57330917 93.48192184 40.19959686 92.51779877 39.81455994 91.52445984 C39.42071609 90.51994278 39.02687225 89.51542572 38.62109375 88.48046875 C38.20835709 87.41887039 37.79562042 86.35727203 37.37037659 85.26350403 C36.06301858 81.90342034 34.75032658 78.54545028 33.4375 75.1875 C32.55238617 72.91484912 31.66761732 70.64206386 30.78320312 68.36914062 C26.42945254 57.16964947 26.42945254 57.16964947 22 46 C21.34 46 20.68 46 20 46 Z " fill="#DAB243" transform="translate(363,1256)"/>
<path d="M0 0 C12.87 0 25.74 0 39 0 C39.029729 5.35061646 39.029729 5.35061646 39.06005859 10.80932617 C39.12712614 22.6278173 39.20466643 34.44622412 39.28752708 46.26461315 C39.33748565 53.42630603 39.3839293 60.58798842 39.421875 67.74975586 C39.45498719 73.99752912 39.49492184 80.2452167 39.54279006 86.49289495 C39.56786573 89.79592963 39.58868252 93.0988989 39.60334396 96.40199852 C39.6203578 100.10430364 39.64942829 103.80634046 39.68115234 107.50854492 C39.68331253 108.58389496 39.68547272 109.659245 39.68769836 110.7671814 C39.82281216 123.20404959 40.51043428 135.22933067 49.1875 144.75 C58.62045555 153.65438477 70.35725822 153.43954086 82.5390625 153.27734375 C91.11101754 152.98482033 98.32257489 150.72139873 104.5703125 144.66796875 C115.75995684 131.61338368 112.34317497 108.18976023 112.4140625 92.28515625 C112.43280124 89.61615535 112.45228413 86.94717014 112.4727478 84.27818298 C112.51919668 78.01008929 112.55610264 71.74197873 112.58942068 65.47380298 C112.6278844 58.32722525 112.67722939 51.18073491 112.72740483 44.03423131 C112.8302194 29.35621759 112.91820536 14.67814729 113 0 C125.87 0 138.74 0 152 0 C152.04531604 16.15203139 152.08208702 32.3040077 152.10362434 48.45608521 C152.11389459 55.95740043 152.12787257 63.45867307 152.15087891 70.95996094 C152.17094409 77.50545152 152.18374725 84.05091124 152.18817699 90.59643173 C152.19076238 94.05553769 152.19674804 97.51455541 152.21146011 100.97363281 C152.41556529 150.98042107 152.41556529 150.98042107 135.875 168.6875 C122.77538696 181.04603676 105.26902245 186.10212379 87.56640625 186.203125 C86.77080795 186.20882507 85.97520966 186.21452515 85.15550232 186.22039795 C83.47550769 186.22980066 81.795495 186.236363 80.11547852 186.24023438 C77.60072639 186.24985378 75.08682355 186.28088587 72.57226562 186.3125 C51.05959941 186.4539575 32.05579754 182.33988851 15.8125 167.3125 C-2.15444942 148.47266235 -0.30728069 121.5034201 -0.20278788 97.33848953 C-0.1901226 93.90592513 -0.18909777 90.47335565 -0.18673706 87.04077148 C-0.180568 80.56723242 -0.16422045 74.09376246 -0.14403808 67.62025356 C-0.12153499 60.23913795 -0.11064975 52.8580187 -0.10064721 45.47687721 C-0.07984907 30.31787355 -0.0432315 15.15895941 0 0 Z " fill="#D9B142" transform="translate(1092,1256)"/>
<path d="M0 0 C43.56 0 87.12 0 132 0 C132 10.56 132 21.12 132 32 C101.64 32 71.28 32 40 32 C40 45.86 40 59.72 40 74 C66.07 74 92.14 74 119 74 C119 84.56 119 95.12 119 106 C92.93 106 66.86 106 40 106 C40 131.74 40 157.48 40 184 C26.8 184 13.6 184 0 184 C0 123.28 0 62.56 0 0 Z " fill="#D2AA3F" transform="translate(1284,1256)"/>
<path d="M0 0 C1.70567139 0.01135986 1.70567139 0.01135986 3.44580078 0.02294922 C24.04634404 0.42526917 41.03371184 8.54068138 55.33984375 23.2734375 C62.05233492 31.13542504 68.33211818 42.26731811 68.30102539 52.83886719 C68.30094986 53.6994574 68.30087433 54.56004761 68.30079651 55.44671631 C68.29563522 56.36664368 68.29047394 57.28657104 68.28515625 58.234375 C68.28303383 59.65753021 68.28303383 59.65753021 68.28086853 61.10943604 C68.27527742 64.13548962 68.26272652 67.16146883 68.25 70.1875 C68.24498385 72.24088435 68.24042115 74.29426986 68.23632812 76.34765625 C68.22531089 81.37763276 68.20805233 86.40755378 68.1875 91.4375 C67.62047363 91.05295654 67.05344727 90.66841309 66.46923828 90.2722168 C61.74873842 87.0941415 57.00495757 84.0702406 52.0625 81.25 C50.92554688 80.59644531 49.78859375 79.94289063 48.6171875 79.26953125 C45.23081962 77.29668589 45.23081962 77.29668589 41.3671875 76.3984375 C38.1875 74.4375 38.1875 74.4375 37.40380859 72.17749023 C36.92122717 69.19756299 36.64364673 66.26161639 36.4375 63.25 C35.49250505 52.12867886 34.09673014 43.04255712 25.1875 35.4375 C14.11179739 28.47474954 3.13188285 25.79560894 -9.6875 28.5625 C-18.49803702 30.9431249 -27.00263411 35.37610483 -31.8125 43.4375 C-34.42253672 49.098884 -35.05717188 53.72319427 -35.328125 59.9140625 C-36.03940099 72.4260537 -36.03940099 72.4260537 -39.33447266 76.1640625 C-43.13248374 78.85520162 -47.38335717 80.28078935 -51.78271484 81.70019531 C-54.84709175 82.81330792 -57.42229351 84.51069568 -60.125 86.3125 C-60.96675781 86.86679688 -61.80851563 87.42109375 -62.67578125 87.9921875 C-63.38089844 88.46914062 -64.08601562 88.94609375 -64.8125 89.4375 C-66.2975 90.4275 -66.2975 90.4275 -67.8125 91.4375 C-67.91244131 85.83655826 -67.98446776 80.2361517 -68.03222656 74.63452148 C-68.05216555 72.73468975 -68.07932691 70.83491796 -68.11425781 68.93530273 C-68.46678308 49.25091393 -65.18170681 34.62164682 -51.28515625 19.8203125 C-37.11135889 6.16151883 -19.48817294 -0.18311035 0 0 Z " fill="#BA9035" transform="translate(958.8125,1206.5625)"/>
</svg>
