<?xml version="1.0" standalone="no"?>
<!DOCTYPE svg PUBLIC "-//W3C//DTD SVG 20010904//EN"
 "http://www.w3.org/TR/2001/REC-SVG-20010904/DTD/svg10.dtd">
<svg version="1.0" xmlns="http://www.w3.org/2000/svg"
 width="1496.000000pt" height="1496.000000pt" viewBox="0 0 1496.000000 1496.000000"
 preserveAspectRatio="xMidYMid meet">

<g transform="translate(0.000000,1496.000000) scale(0.100000,-0.100000)"
fill="#000000" stroke="none">
<path d="M2150 4015 l0 -285 755 0 755 0 -2 282 -3 281 -24 4 c-19 3 -21 1
-12 -10 9 -12 6 -14 -18 -13 -16 1 -27 4 -25 7 2 4 -3 9 -11 13 -8 3 -19 -2
-24 -12 -9 -16 -10 -16 -16 1 -4 9 -11 17 -17 17 -5 0 -6 -4 -3 -10 9 -14 -8
-12 -24 3 -11 10 -12 9 -6 -2 6 -10 4 -12 -6 -5 -20 12 -40 14 -33 3 8 -13
-10 -11 -25 4 -10 8 -12 8 -7 0 3 -6 2 -14 -4 -18 -5 -3 -10 2 -10 11 0 16 -1
16 -15 -2 -13 -16 -14 -16 -9 -1 4 11 1 17 -10 17 -9 0 -16 -8 -16 -20 0 -21
-15 -27 -25 -10 -4 6 -11 8 -16 5 -5 -3 -6 0 -3 8 4 10 -4 14 -31 13 -19 -1
-35 -4 -35 -8 0 -5 5 -8 12 -8 6 0 8 -3 5 -6 -4 -4 -17 0 -29 8 -14 9 -31 12
-43 8 -11 -4 -24 -5 -29 -2 -15 9 -87 9 -74 0 9 -6 7 -8 -7 -6 -11 2 -26 -3
-33 -12 -11 -13 -11 -13 -6 1 8 24 -27 34 -43 13 -9 -12 -13 -13 -13 -5 0 10
-9 12 -30 8 -20 -5 -30 -3 -30 6 0 6 -5 4 -11 -7 -6 -10 -14 -14 -18 -9 -3 6
-25 13 -49 16 -39 5 -41 4 -25 -8 17 -13 16 -14 -6 -10 -12 2 -29 10 -37 16
-8 7 -17 9 -21 5 -3 -3 0 -6 8 -7 8 0 3 -5 -10 -10 -26 -10 -65 -3 -56 11 2 4
-10 7 -27 5 -18 -1 -34 -8 -36 -14 -3 -9 -8 -9 -17 -1 -9 8 -17 6 -29 -5 -9
-10 -16 -12 -16 -5 0 6 -5 8 -12 4 -6 -4 -8 -3 -4 4 3 6 2 13 -4 17 -5 3 -10
-1 -10 -11 0 -12 -3 -14 -13 -6 -13 11 -87 9 -106 -3 -6 -3 -9 0 -6 7 6 15
-39 23 -58 11 -17 -11 -67 -11 -67 0 0 5 -6 4 -14 -2 -11 -9 -20 -9 -35 -2
-25 14 -31 14 -31 0 0 -5 6 -7 13 -3 6 4 8 3 4 -2 -13 -14 -56 -13 -50 3 3 7
0 13 -6 13 -8 0 -11 -83 -11 -285z m240 271 c0 -11 -19 -15 -25 -6 -3 5 1 10
9 10 9 0 16 -2 16 -4z m807 -18 c-3 -8 -6 -5 -6 6 -1 11 2 17 5 13 3 -3 4 -12
1 -19z"/>
<path d="M5192 4288 c-8 -8 -12 -51 -12 -129 l0 -117 -185 -142 c-102 -78
-185 -144 -185 -146 0 -2 342 -4 760 -4 l760 0 0 268 0 267 -32 -1 c-21 -1
-32 -6 -30 -15 3 -10 0 -10 -13 1 -8 7 -18 10 -22 7 -3 -4 -13 -1 -21 5 -15
13 -130 20 -137 9 -5 -8 -133 -5 -162 4 -16 5 -25 3 -29 -9 -5 -14 -9 -14 -36
0 -17 9 -27 11 -24 5 4 -6 1 -11 -8 -11 -8 0 -16 5 -18 12 -3 7 -11 9 -24 3
-10 -4 -32 -7 -49 -5 -75 6 -98 5 -102 -6 -3 -8 -14 -10 -33 -4 -18 5 -32 4
-40 -3 -10 -9 -11 -8 -6 8 6 16 5 18 -5 8 -15 -15 -59 -17 -59 -3 0 6 -5 10
-11 10 -5 0 -7 -4 -4 -10 3 -5 2 -10 -4 -10 -5 0 -12 6 -14 13 -3 7 -6 5 -6
-5 -1 -10 -4 -18 -8 -18 -3 0 -15 8 -26 18 -11 9 -17 11 -13 5 4 -8 1 -13 -9
-13 -9 0 -13 5 -10 10 10 16 -12 12 -29 -6 -9 -9 -16 -11 -16 -4 0 10 -42 7
-92 -7 -12 -3 -18 1 -18 11 0 19 -11 21 -28 4z m948 -13 c-7 -8 -17 -12 -23
-8 -6 4 -3 9 9 14 27 11 28 11 14 -6z m-220 -5 c0 -5 -2 -10 -4 -10 -3 0 -8 5
-11 10 -3 6 -1 10 4 10 6 0 11 -4 11 -10z"/>
<path d="M6505 4291 c-2 -2 -4 -124 -5 -272 l-1 -269 131 0 131 0 -1 270 c-1
156 -5 272 -11 275 -5 4 -9 2 -9 -3 0 -5 -9 -12 -20 -15 -11 -3 -20 -1 -20 3
0 5 8 11 18 13 13 4 12 5 -5 6 -12 0 -25 -4 -29 -10 -4 -8 -9 -7 -15 2 -6 9
-12 10 -16 4 -14 -18 -48 -41 -39 -27 7 11 1 13 -27 9 -26 -3 -34 -1 -31 8 4
9 -3 12 -21 11 -15 0 -28 -3 -30 -5z"/>
<path d="M6615 4290 c3 -5 8 -10 11 -10 2 0 4 5 4 10 0 6 -5 10 -11 10 -5 0
-7 -4 -4 -10z"/>
<path d="M7137 4294 c-1 -2 -19 -4 -40 -6 l-37 -2 0 -268 0 -268 700 0 700 0
-2 272 c-3 265 -4 273 -23 273 -11 0 -28 -3 -37 -7 -9 -5 -19 -4 -23 1 -3 6
-17 6 -35 1 -19 -5 -28 -5 -25 1 4 5 1 9 -4 9 -6 0 -11 -6 -11 -12 0 -9 -3
-10 -8 -2 -11 17 -42 13 -42 -5 0 -14 -2 -14 -11 -1 -8 12 -12 12 -16 2 -4
-10 -8 -9 -19 5 -11 14 -15 15 -22 5 -5 -8 -12 -13 -15 -12 -4 1 -20 5 -37 10
-16 5 -30 5 -30 0 0 -11 -53 -7 -62 5 -5 6 -8 5 -8 -2 0 -9 -10 -11 -30 -6
-21 4 -30 2 -30 -7 0 -9 -7 -7 -20 5 -15 14 -20 15 -20 4 0 -12 -2 -12 -9 0
-7 11 -9 11 -14 0 -4 -12 -6 -12 -6 0 -1 11 -6 10 -21 -4 -16 -14 -20 -15 -20
-4 0 11 -10 14 -39 11 -31 -3 -39 -8 -35 -20 3 -10 0 -8 -6 3 -10 18 -21 20
-90 20 -53 0 -79 -4 -76 -11 2 -6 -2 -11 -10 -11 -9 0 -13 6 -9 16 5 13 3 12
-12 -1 -23 -21 -47 -26 -49 -10 -1 6 -2 15 -3 19 0 4 -8 -2 -17 -13 -13 -16
-15 -16 -10 -1 5 16 4 16 -21 0 -15 -10 -24 -13 -20 -7 4 7 -2 14 -14 17 -17
5 -18 3 -8 -9 10 -12 9 -13 -5 -8 -9 3 -16 1 -16 -6 0 -6 -5 -8 -11 -4 -8 5
-8 9 1 14 20 12 -7 22 -28 11 -14 -8 -57 -8 -57 -1 0 1 -8 3 -18 5 -14 3 -17
-1 -13 -13 5 -14 4 -14 -8 1 -14 18 -14 18 -19 0 -4 -16 -5 -16 -6 0 0 9 -6
17 -12 17 -5 0 -8 -4 -5 -9 4 -5 -9 -6 -29 -1 -20 4 -35 4 -35 -1 0 -5 -5 -9
-11 -9 -5 0 -8 4 -5 8 5 8 -20 13 -27 6z"/>
<path d="M8660 4290 c-8 -5 -18 -6 -22 -4 -4 3 -8 -117 -8 -265 l0 -271 760 0
c418 0 760 2 760 4 0 2 -83 65 -185 141 l-185 136 -1 122 c-1 67 -1 125 -1
128 1 3 -4 6 -11 7 -71 8 -89 8 -94 -1 -3 -6 -2 -7 4 -4 5 3 10 -1 10 -9 0
-11 -6 -9 -24 7 -19 19 -27 21 -47 11 -14 -6 -34 -9 -45 -7 -12 2 -21 -1 -21
-8 0 -7 -4 -6 -10 3 -5 8 -10 11 -10 6 0 -5 -6 -4 -12 1 -11 8 -33 10 -40 3
-2 -1 -10 -3 -18 -5 -8 -2 -23 -6 -32 -10 -13 -5 -18 -2 -18 9 0 16 -24 17
-49 2 -7 -5 -16 -5 -20 0 -7 10 -131 13 -131 3 0 -4 -7 -10 -16 -13 -12 -5
-15 -2 -10 11 6 17 5 17 -7 1 -12 -15 -16 -16 -33 -3 -22 16 -54 20 -54 5 0
-5 7 -7 15 -4 8 4 15 2 15 -4 0 -10 -12 -10 -40 1 -8 3 -37 8 -63 11 -45 5
-48 4 -36 -12 10 -13 8 -12 -9 2 -17 15 -25 17 -34 8 -7 -7 -17 -12 -22 -12
-6 0 -4 5 4 10 13 8 12 10 -2 10 -10 0 -18 -3 -18 -7 0 -5 -11 -13 -24 -19
-21 -10 -23 -9 -18 4 4 11 1 14 -11 9 -9 -3 -17 -2 -17 3 0 6 -4 10 -10 10 -5
0 -7 -6 -4 -13 3 -8 -2 -14 -11 -14 -9 0 -14 6 -11 12 2 6 -2 12 -10 12 -7 0
-11 -4 -9 -8 3 -4 -3 -10 -12 -13 -9 -4 -20 -1 -24 5 -5 9 -15 9 -39 0 -40
-13 -50 -14 -30 -1 8 5 12 11 9 14 -2 3 -11 1 -19 -4z m990 -9 c0 -6 -9 -9
-19 -8 -11 0 -17 5 -15 9 7 11 34 10 34 -1z"/>
<path d="M11320 4296 c0 -2 7 -6 15 -10 8 -3 15 -1 15 4 0 6 -7 10 -15 10 -8
0 -15 -2 -15 -4z"/>
<path d="M11379 4293 c-1 -5 -1 -11 0 -15 0 -4 -17 -5 -39 -2 l-40 6 0 -276 0
-276 755 0 755 0 0 279 0 278 -22 -1 c-13 -1 -29 2 -35 7 -9 7 -13 4 -13 -8 0
-15 -2 -16 -17 -4 -10 8 -14 9 -10 2 4 -6 3 -14 -3 -18 -6 -3 -10 3 -10 15 0
19 -2 20 -15 7 -11 -11 -24 -13 -50 -7 -22 5 -35 4 -35 -2 0 -6 -6 -5 -15 2
-11 9 -18 10 -28 1 -8 -6 -17 -8 -20 -4 -4 3 -30 5 -58 4 -29 -1 -48 3 -45 8
7 10 -13 9 -30 -1 -11 -7 -32 -6 -49 3 -19 10 -84 2 -102 -12 -16 -13 -17 -12
-4 4 10 13 11 17 1 17 -7 0 -18 -7 -25 -17 -9 -13 -14 -13 -20 -3 -6 9 -4 11
6 5 8 -5 11 -4 6 0 -4 5 -28 7 -55 6 -26 -1 -57 -2 -69 -3 -13 0 -21 -3 -19
-7 3 -4 -4 -7 -15 -7 -10 0 -19 7 -19 14 0 11 -3 12 -14 3 -9 -8 -15 -8 -18
-1 -2 7 -14 6 -36 -2 -21 -8 -35 -9 -40 -3 -4 6 -15 11 -25 11 -14 2 -15 -1
-6 -12 10 -12 8 -13 -7 -7 -10 3 -22 11 -25 16 -4 5 -15 4 -28 -2 -16 -9 -21
-9 -21 1 0 9 -3 9 -10 -2 -5 -8 -12 -11 -16 -7 -4 4 -13 2 -20 -4 -8 -6 -14
-7 -18 0 -4 6 -14 7 -23 4 -12 -5 -14 -3 -8 8 6 11 5 12 -5 2 -10 -9 -17 -10
-27 -2 -10 9 -13 8 -13 -2 0 -11 -2 -11 -10 1 -6 9 -10 10 -10 3 0 -6 -9 -11
-20 -10 -11 1 -20 5 -20 9 0 4 -7 5 -15 2 -8 -4 -13 -9 -10 -13 2 -4 -2 -8
-10 -8 -8 0 -11 5 -8 10 4 7 -1 8 -13 3 -40 -16 -50 -19 -36 -8 11 7 9 10 -7
15 -11 3 -19 0 -18 -5 1 -6 -4 -13 -12 -16 -10 -3 -12 0 -8 11 6 15 -15 18
-29 4 -4 -4 -13 -2 -21 4 -10 9 -13 8 -13 -2 0 -9 -3 -10 -8 -4 -9 12 -32 18
-33 8z"/>
<path d="M2708 4283 c7 -3 16 -2 19 1 4 3 -2 6 -13 5 -11 0 -14 -3 -6 -6z"/>
<path d="M3315 4280 c3 -5 8 -10 11 -10 2 0 4 5 4 10 0 6 -5 10 -11 10 -5 0
-7 -4 -4 -10z"/>
</g>
</svg>
